<svg xmlns="http://www.w3.org/2000/svg" viewBox="0 0 22.64 22.64"><defs><style>.cls-1{fill:#8e929b;}</style></defs><g id="Capa_2" data-name="Capa 2"><g id="hyundai_santa_fe" data-name="hyundai santa fe"><path class="cls-1" d="M9.56,0,9.15,2.09A9.28,9.28,0,0,0,6.33,3.25L4.56,2.07,2.07,4.56,3.25,6.33A9.28,9.28,0,0,0,2.09,9.15L0,9.56v3.52l2.09.41a9.28,9.28,0,0,0,1.16,2.82L2.07,18.08l2.49,2.48,1.77-1.18a9.31,9.31,0,0,0,2.82,1.17l.41,2.09h3.52l.41-2.09a9.31,9.31,0,0,0,2.82-1.17l1.77,1.18,2.48-2.48-1.18-1.77a9.31,9.31,0,0,0,1.17-2.82l2.09-.41V9.56l-2.09-.41a9.31,9.31,0,0,0-1.17-2.82l1.18-1.77L18.08,2.07,16.31,3.25a9.28,9.28,0,0,0-2.82-1.16L13.08,0Zm.81,1h1.9l.38,1.91L13,3a8.53,8.53,0,0,1,3.1,1.28l.27.19L18,3.34,19.3,4.68,18.22,6.3l.19.27a8.71,8.71,0,0,1,1.28,3.1l.06.32,1.9.38v1.9l-1.9.38-.06.32a8.71,8.71,0,0,1-1.28,3.1l-.19.27L19.3,18,18,19.3l-1.62-1.08-.27.19A8.71,8.71,0,0,1,13,19.69l-.32.06-.38,1.9h-1.9L10,19.75l-.32-.06a8.71,8.71,0,0,1-3.1-1.28l-.27-.19L4.68,19.3,3.34,18l1.08-1.62-.19-.27A8.53,8.53,0,0,1,3,13l-.06-.32L1,12.27v-1.9L2.89,10,3,9.67a8.53,8.53,0,0,1,1.28-3.1l.19-.27L3.34,4.68,4.68,3.34,6.3,4.42l.27-.19A8.53,8.53,0,0,1,9.67,3L10,2.89Zm1,3.08a7.26,7.26,0,1,0,7.26,7.26A7.27,7.27,0,0,0,11.32,4.06Zm0,1A6.28,6.28,0,1,1,5,11.32,6.27,6.27,0,0,1,11.32,5Z"/></g></g></svg>