<svg xmlns="http://www.w3.org/2000/svg" viewBox="0 0 14 12.98"><defs><style>.cls-1{fill:#59667c;}</style></defs><g id="Capa_2" data-name="Capa 2"><g id="radio"><g id="playlist"><path class="cls-1" d="M.5,1h13A.5.5,0,0,0,14,.5a.5.5,0,0,0-.5-.5H.5A.5.5,0,0,0,0,.5.5.5,0,0,0,.5,1Z"/><path class="cls-1" d="M.5,4H9A.5.5,0,1,0,9,3H.5a.5.5,0,1,0,0,1Z"/><path class="cls-1" d="M.5,7h7a.5.5,0,0,0,0-1H.5a.5.5,0,0,0,0,1Z"/><path class="cls-1" d="M5,9H.5a.5.5,0,0,0-.5.5.5.5,0,0,0,.5.5H5a.5.5,0,0,0,.5-.5A.5.5,0,0,0,5,9Z"/><path class="cls-1" d="M5,12H.5a.5.5,0,0,0-.5.5.5.5,0,0,0,.5.5H5a.5.5,0,0,0,.5-.5A.5.5,0,0,0,5,12Z"/><path class="cls-1" d="M13.67,4.35l-1.9-.79a1,1,0,0,0-.87.09,1,1,0,0,0-.42.8v4A2.43,2.43,0,0,0,9,8a2.5,2.5,0,1,0,2.49,2.49v-6l1.83.75a.5.5,0,1,0,.38-.92ZM9,12a1.5,1.5,0,1,1,1.49-1.5A1.5,1.5,0,0,1,9,12Z"/></g></g></g></svg>