<svg xmlns="http://www.w3.org/2000/svg" viewBox="0 0 30.64 33.62"><defs><style>.cls-1{opacity:0.5;}.cls-2{fill:#fff;}.cls-3{opacity:0.2;}</style></defs><g id="Capa_2" data-name="Capa 2"><g id="km_h" data-name="km/h"><g class="cls-1"><path class="cls-2" d="M1.39,13.48,14.54.51a1.78,1.78,0,0,1,3,1.27h0A1.82,1.82,0,0,1,17,3.06L2.76,16.74v.14L17,30.56a1.78,1.78,0,0,1,.54,1.28h0a1.77,1.77,0,0,1-3,1.26l-13.15-13A4.68,4.68,0,0,1,0,16.81H0A4.68,4.68,0,0,1,1.39,13.48Z"/><g class="cls-1"><path class="cls-2" d="M13.83,14.53l9-8.87a1.22,1.22,0,0,1,2.07.86h0a1.2,1.2,0,0,1-.37.88l-9.75,9.36v.1l9.75,9.35a1.22,1.22,0,0,1,.37.88h0a1.22,1.22,0,0,1-2.07.87l-9-8.87a3.23,3.23,0,0,1-.95-2.28h0A3.19,3.19,0,0,1,13.83,14.53Z"/></g><g class="cls-3"><path class="cls-2" d="M23.91,15.42,29.38,10a.74.74,0,0,1,1.26.53h0a.72.72,0,0,1-.23.53l-5.93,5.7v.06l5.93,5.69a.74.74,0,0,1,.23.54h0a.74.74,0,0,1-1.26.52l-5.47-5.4a1.93,1.93,0,0,1-.58-1.38h0A2,2,0,0,1,23.91,15.42Z"/></g></g></g></g></svg>