<svg xmlns="http://www.w3.org/2000/svg" viewBox="0 0 22.07 20.6"><defs><style>.cls-1{fill:#fff;}</style></defs><g id="Capa_2" data-name="Capa 2"><g id="climatizador_y_volumen" data-name="climatizador y volumen"><path class="cls-1" d="M9.81,0V2H5.89v2H9.81v2l2.94-2.95Zm9.57.49a2.7,2.7,0,1,0,2.69,2.7A2.7,2.7,0,0,0,19.38.49Zm0,1a1.72,1.72,0,1,1-1.72,1.72A1.71,1.71,0,0,1,19.38,1.47ZM2,5.4V8.83H0l2.94,2.94L5.89,8.83h-2V5.4Zm15.84,1A2.6,2.6,0,0,0,15.74,7.6v0l-2.58,4.29-.65-.14-3.83-.92a1.87,1.87,0,0,0-1.91.71l-4.43,6a1.92,1.92,0,0,0,3.07,2.31L8.74,15.5l5,2,.05,0a2.52,2.52,0,0,0,.71.16h.28a2.93,2.93,0,0,0,.65-.11l.2-.07h0A2.54,2.54,0,0,0,17,16.34l3.24-5.93v0a2.64,2.64,0,0,0-1.17-3.77,2.84,2.84,0,0,0-.9-.23Zm0,1a2,2,0,0,1,.89.16,1.69,1.69,0,0,1,.71,2.38h0v0l-2.47,4.53-.78,1.43a1.42,1.42,0,0,1-.36.44,1.54,1.54,0,0,1-.37.23l-.2.07h0a3.08,3.08,0,0,1-.37,0,1.66,1.66,0,0,1-.64-.13h0l-1.65-.64L8.75,14.46l-.35-.14-.23.29L4.63,19.25a.94.94,0,0,1-1.5-1.13l4.43-6a.86.86,0,0,1,.64-.34,1.1,1.1,0,0,1,.26,0l2.8.66,2.36.56.19-.3,2.76-4.6a1.67,1.67,0,0,1,.94-.74A1.17,1.17,0,0,1,17.78,7.36Z"/></g></g></svg>