<svg xmlns="http://www.w3.org/2000/svg" viewBox="0 0 32 32"><g id="mute"><path d="M17.87,6.23a2.19,2.19,0,0,0-2.24,0L7.81,11a.41.41,0,0,1-.19.05H4.37A2.37,2.37,0,0,0,2,13.37v5.26A2.37,2.37,0,0,0,4.37,21H7.62a.41.41,0,0,1,.19.05l7.82,4.69a2.21,2.21,0,0,0,2.24,0A2.19,2.19,0,0,0,19,23.84V8.16A2.19,2.19,0,0,0,17.87,6.23ZM17,23.84a.22.22,0,0,1-.11.19.21.21,0,0,1-.23,0L8.84,19.34A2.39,2.39,0,0,0,7.62,19H4.37A.38.38,0,0,1,4,18.63V13.37A.38.38,0,0,1,4.37,13H7.62a2.39,2.39,0,0,0,1.22-.34L16.66,8a.23.23,0,0,1,.23,0,.22.22,0,0,1,.11.19Z"/><path d="M26.83,16l2.92-3.34a1,1,0,0,0-1.5-1.32L25.5,14.48l-2.75-3.14a1,1,0,1,0-1.5,1.32L24.17,16l-2.92,3.34A1,1,0,0,0,22,21a1,1,0,0,0,.75-.34l2.75-3.14,2.75,3.14A1,1,0,0,0,29,21a1,1,0,0,0,.75-1.66Z"/></g></svg>