<svg xmlns="http://www.w3.org/2000/svg" viewBox="0 0 18.09 18.09"><defs><style>.cls-1{fill:#fff;}</style></defs><g id="Capa_2" data-name="Capa 2"><g id="climatizador_y_volumen" data-name="climatizador y volumen"><path class="cls-1" d="M4.79,0,4.4,0h0A4.19,4.19,0,0,0,3.08.47h0A5.13,5.13,0,0,0,1.81,1.53,5.19,5.19,0,0,0,.46,4.32h0a2.32,2.32,0,0,0,0,.46A4.84,4.84,0,0,0,6.79,9.25c0,.11,0,.22,0,.33v0h0a2.84,2.84,0,0,1-.69,1.32,1.28,1.28,0,0,1-1,.39,2.19,2.19,0,0,1-1.35-.48h0a2.16,2.16,0,0,0-.76-.37h0a2.85,2.85,0,0,0-.41,0,2.55,2.55,0,0,0-1.11.26A2.91,2.91,0,0,0,.17,12.38,2.67,2.67,0,0,0,0,13.3a2.34,2.34,0,0,0,0,.38H0A4.28,4.28,0,0,0,.47,15a5,5,0,0,0,1.06,1.26h0a5.13,5.13,0,0,0,2.79,1.36h0a3.44,3.44,0,0,0,.46,0A4.81,4.81,0,0,0,9.5,12.78a5,5,0,0,0-.25-1.49,1.86,1.86,0,0,0,.34,0h0a2.75,2.75,0,0,1,1.32.69,1.28,1.28,0,0,1,.39,1,2.19,2.19,0,0,1-.48,1.35h0a2.16,2.16,0,0,0-.37.76h0a2.71,2.71,0,0,0,0,.41,2.58,2.58,0,0,0,.26,1.11h0a2.91,2.91,0,0,0,1.69,1.37,2.67,2.67,0,0,0,.92.17,2.34,2.34,0,0,0,.38,0h0A4.28,4.28,0,0,0,15,17.62a5.05,5.05,0,0,0,1.26-1.07,5.1,5.1,0,0,0,1.36-2.79h0a3.55,3.55,0,0,0,0-.46A4.83,4.83,0,0,0,11.3,8.84c0-.12,0-.23-.05-.35h0a2.85,2.85,0,0,1,.69-1.32,1.31,1.31,0,0,1,1-.38,2.19,2.19,0,0,1,1.35.48,2.16,2.16,0,0,0,.76.37h0a2.39,2.39,0,0,0,1.52-.22,2.94,2.94,0,0,0,1.37-1.69h0a2.67,2.67,0,0,0,.17-.92,2.56,2.56,0,0,0,0-.39h0a4.19,4.19,0,0,0-.44-1.32h0a4.73,4.73,0,0,0-1.07-1.27A5.15,5.15,0,0,0,13.76.46h0a2.38,2.38,0,0,0-.46,0A4.82,4.82,0,0,0,8.59,5.31a5.14,5.14,0,0,0,.24,1.47l-.36,0a2.94,2.94,0,0,1-1.32-.68,1.31,1.31,0,0,1-.38-1,2.19,2.19,0,0,1,.48-1.35h0a2.25,2.25,0,0,0,.37-.76h0a2.85,2.85,0,0,0,0-.41A2.69,2.69,0,0,0,7.4,1.54,2.91,2.91,0,0,0,5.71.17,2.67,2.67,0,0,0,4.79,0Zm0,.91a1.81,1.81,0,0,1,.6.11h0a2.51,2.51,0,0,1,1.18.9h0a1.7,1.7,0,0,1,.18.73.85.85,0,0,1,0,.23,1.3,1.3,0,0,1-.23.44h0a3.21,3.21,0,0,0-.63,1.85A2.28,2.28,0,0,0,6.5,6.78a3.06,3.06,0,0,0,.92.63l-.08.07a2.38,2.38,0,0,0-.44.79,4.18,4.18,0,0,1-1.59.32,3.89,3.89,0,0,1-4-3.8,2,2,0,0,1,0-.34h0a4.19,4.19,0,0,1,1.12-2.3,4.22,4.22,0,0,1,1-.89h0a3.28,3.28,0,0,1,1-.33Zm8.51.42a2,2,0,0,1,.34,0,4.22,4.22,0,0,1,2.3,1.12,4.45,4.45,0,0,1,.89,1h0a3.28,3.28,0,0,1,.33,1h0a1.79,1.79,0,0,1,0,.24h0a1.81,1.81,0,0,1-.11.6,2.51,2.51,0,0,1-.9,1.18h0a1.74,1.74,0,0,1-.73.18.85.85,0,0,1-.23,0,1.3,1.3,0,0,1-.44-.23h0a3.14,3.14,0,0,0-1.84-.63,2.32,2.32,0,0,0-1.62.64,3.23,3.23,0,0,0-.62.92,2.14,2.14,0,0,0-.87-.54A4.07,4.07,0,0,1,9.5,5.31,3.89,3.89,0,0,1,13.3,1.33ZM9,7.67a1.26,1.26,0,0,1,.33,0l.29.07a1.15,1.15,0,0,1,.41.3,1.31,1.31,0,0,1,.25.43v0l0,.11c0,.06,0,.11,0,.17a1.5,1.5,0,0,1,0,.22.88.88,0,0,1,0,.16.68.68,0,0,1,0,.14,1.41,1.41,0,0,1-.3.64,1.11,1.11,0,0,1-.52.33h0l-.11,0-.1,0a1.39,1.39,0,0,1-.3,0,1.69,1.69,0,0,1-.33,0h0A1.2,1.2,0,0,1,8,10a1.38,1.38,0,0,1-.25-.42h0l0-.09a.19.19,0,0,1,0-.07l0-.1a2.29,2.29,0,0,1,0-.25s0-.1,0-.14a1.13,1.13,0,0,1,0-.18h0A1.38,1.38,0,0,1,8,8.09a1.16,1.16,0,0,1,.48-.32h0l.11,0A1.46,1.46,0,0,1,9,7.67ZM12.78,9.5a3.9,3.9,0,0,1,4,3.8,2,2,0,0,1,0,.34,4.26,4.26,0,0,1-1.12,2.3,4.45,4.45,0,0,1-1,.89h0a3.37,3.37,0,0,1-1,.33l-.24,0h0a1.81,1.81,0,0,1-.6-.11,2.59,2.59,0,0,1-1.19-.9,1.88,1.88,0,0,1-.17-.73,1.64,1.64,0,0,1,0-.23h0a1.83,1.83,0,0,1,.24-.45,3.14,3.14,0,0,0,.63-1.84,2.36,2.36,0,0,0-.64-1.62,3.31,3.31,0,0,0-.93-.63l.09-.08a2.18,2.18,0,0,0,.43-.77A4,4,0,0,1,12.78,9.5ZM7.41,10.66a2.14,2.14,0,0,0,.86.52,4.23,4.23,0,0,1,.32,1.6,3.9,3.9,0,0,1-3.8,4,2,2,0,0,1-.34,0h0a4.26,4.26,0,0,1-2.3-1.12,4.22,4.22,0,0,1-.89-1h0a3.37,3.37,0,0,1-.33-1h0a1.94,1.94,0,0,1,0-.24h0A1.81,1.81,0,0,1,1,12.7H1a2.61,2.61,0,0,1,.9-1.18,1.84,1.84,0,0,1,.73-.17l.23,0a1.65,1.65,0,0,1,.44.24,3.21,3.21,0,0,0,1.85.63,2.32,2.32,0,0,0,1.61-.64A3.11,3.11,0,0,0,7.41,10.66Z"/></g></g></svg>