<svg xmlns="http://www.w3.org/2000/svg" viewBox="0 0 28 28"><defs><style>.cls-1{fill:#f78a07;}.cls-2{fill:#35d9f2;}</style></defs><g id="Capa_2" data-name="Capa 2"><g id="mapa"><rect class="cls-1" x="11.67" width="2.33" height="4.08" rx="1.17"/><rect class="cls-1" y="11.67" width="4.08" height="2.33" rx="1.17"/><rect class="cls-1" x="18.42" y="4.04" width="4.08" height="2.33" rx="1.17" transform="translate(2.31 15.99) rotate(-45)"/><rect class="cls-1" x="4.04" y="3.16" width="2.33" height="4.08" rx="1.17" transform="translate(-2.15 5.2) rotate(-44.99)"/><path class="cls-2" d="M19.83,11.67a8.17,8.17,0,0,0-7.48,5,5.67,5.67,0,0,0-1.85-.33A5.84,5.84,0,0,0,10.5,28h9.33a8.17,8.17,0,1,0,0-16.33Zm0,14H10.7A3.64,3.64,0,0,1,7,22.35a3.51,3.51,0,0,1,6.88-1.11,1.19,1.19,0,0,0,1.13.93h0a1.17,1.17,0,0,0,1.14-1.45,5.92,5.92,0,0,0-1.78-2.89,5.83,5.83,0,1,1,5.46,7.84Z"/><path class="cls-1" d="M9.83,16.37a4.61,4.61,0,0,1-1.66-3.54,4.66,4.66,0,0,1,9.25-.8h.07a8,8,0,0,1,2.24-.35A7,7,0,1,0,7.39,17.23,5.84,5.84,0,0,1,9.83,16.37Z"/></g></g></svg>