<svg xmlns="http://www.w3.org/2000/svg" viewBox="0 0 31.41 27.99"><defs><style>.cls-1{fill:#fff;}</style></defs><g id="Capa_2" data-name="Capa 2"><g id="climatizador_y_volumen" data-name="climatizador y volumen"><path class="cls-1" d="M15.71,0A1.91,1.91,0,0,0,14,1L.28,24.77A2.17,2.17,0,0,0,2.14,28H29.27a2.17,2.17,0,0,0,1.86-3.22L17.39,1A1.94,1.94,0,0,0,15.71,0Zm0,1.32a.59.59,0,0,1,.49.31L30,25.45a.77.77,0,0,1-.68,1.18H2.14a.77.77,0,0,1-.68-1.18L15.21,1.63A.59.59,0,0,1,15.71,1.32Zm0,9.59a9.31,9.31,0,0,0-3.15.48,2.65,2.65,0,0,0-1.66,1.23h0c-.08.17-.15.36-.27.67s-.26.7-.41,1.12c-.31.86-.66,1.85-.92,2.59h0a7.54,7.54,0,0,0-.43,2.49v3.62a.8.8,0,0,0,.82.78h.41a.8.8,0,0,0,.82-.78v-.58h9.57v.58a.8.8,0,0,0,.82.78h.41a.8.8,0,0,0,.82-.78h0v-3.6h0A7.47,7.47,0,0,0,22.1,17h0c-.22-.6-.4-1.09-.66-1.82v0h0c-.35-1-.78-2.17-.91-2.5h0a2.45,2.45,0,0,0-1.67-1.26A9.5,9.5,0,0,0,15.71,10.91Zm0,1.37a8.17,8.17,0,0,1,2.68.38,2.75,2.75,0,0,1,.86.49c.08.2.47,1.29.77,2.12a.9.9,0,0,1-.08.25c-.05.07-.11.17-.7.17H12.05a.72.72,0,0,1-.71-.37c.06-.15.11-.3.16-.45.15-.43.3-.81.41-1.11a5.3,5.3,0,0,1,.22-.55h0a2.52,2.52,0,0,1,.9-.53A7.83,7.83,0,0,1,15.71,12.28Zm-4.87,4.45a2.15,2.15,0,0,0,1.36.33h7a2.53,2.53,0,0,0,1.32-.33l.26.72h0a6,6,0,0,1,.36,2.06h0v1.65H10.24V19.49a6.1,6.1,0,0,1,.35-2h0Zm.68,1.87a.55.55,0,0,0-.55.56h0c0,.36.25.54.57.72a2.55,2.55,0,0,0,1.32.4.85.85,0,0,0,.81-.87.83.83,0,0,0-.81-.81H11.52Zm7,0a.83.83,0,0,0-.81.86.84.84,0,0,0,.82.82,2.61,2.61,0,0,0,1.32-.4c.31-.18.56-.36.56-.72a.55.55,0,0,0-.54-.56H18.53Z"/></g></g></svg>