<svg xmlns="http://www.w3.org/2000/svg" viewBox="0 0 18.2 13"><defs><style>.cls-1{fill:#59667c;}</style></defs><g id="Capa_2" data-name="Capa 2"><g id="radio"><path class="cls-1" d="M10.92,5.15,2.3.2A1.52,1.52,0,0,0,.77.21,1.54,1.54,0,0,0,0,1.56v9.88a1.54,1.54,0,0,0,.77,1.35,1.51,1.51,0,0,0,.77.21,1.6,1.6,0,0,0,.76-.2l8.62-5a1.56,1.56,0,0,0,0-2.7Zm-.65,1.57-8.62,5a.23.23,0,0,1-.23,0,.27.27,0,0,1-.12-.23V1.56a.27.27,0,0,1,.12-.23.35.35,0,0,1,.12,0l.11,0,8.62,5a.25.25,0,0,1,0,.44Z"/><path class="cls-1" d="M16.2,0h-.56a2,2,0,0,0-2,2v9a2,2,0,0,0,2,2h.56a2,2,0,0,0,2-2V2A2,2,0,0,0,16.2,0Zm.7,11a.7.7,0,0,1-.7.7h-.56A.69.69,0,0,1,15,11V2a.69.69,0,0,1,.69-.7h.56a.7.7,0,0,1,.7.7Z"/></g></g></svg>