<svg xmlns="http://www.w3.org/2000/svg" xmlns:xlink="http://www.w3.org/1999/xlink" viewBox="0 0 331 331"><defs><style>.cls-1,.cls-2{fill:#262f40;}.cls-2{opacity:0;}.cls-3{fill:#fe2c9a;}.cls-4{fill:url(#Degradado_sin_nombre_29);}.cls-5{fill:url(#Degradado_sin_nombre_42);}.cls-6{fill:#fe8e06;}.cls-7{fill:url(#Degradado_sin_nombre_51);}.cls-8{fill:url(#Degradado_sin_nombre_29-2);}</style><linearGradient id="Degradado_sin_nombre_29" y1="125.27" x2="244.51" y2="125.27" gradientUnits="userSpaceOnUse"><stop offset="0" stop-color="#b5e9fd"/><stop offset="1" stop-color="#2fd6d6"/></linearGradient><linearGradient id="Degradado_sin_nombre_42" x1="242.47" y1="17.07" x2="207.93" y2="86.03" gradientUnits="userSpaceOnUse"><stop offset="0.57" stop-color="#35d9f2"/><stop offset="0.94" stop-color="#35d9f2" stop-opacity="0"/></linearGradient><linearGradient id="Degradado_sin_nombre_51" x1="131.45" y1="115.91" x2="149.63" y2="141.85" gradientUnits="userSpaceOnUse"><stop offset="0.07" stop-color="#fe8e06"/><stop offset="0.94" stop-color="#fe8e06" stop-opacity="0"/></linearGradient><linearGradient id="Degradado_sin_nombre_29-2" x1="128.61" y1="149.17" x2="234.5" y2="149.17" xlink:href="#Degradado_sin_nombre_29"/></defs><g id="Capa_2" data-name="Capa 2"><g id="km_h" data-name="km/h"><path class="cls-1" d="M43,165.5a122.5,122.5,0,1,1,226.73,64.43l36.58,22.55A165.49,165.49,0,1,0,23.5,250.54l37-21.93A121.71,121.71,0,0,1,43,165.5Z"/><path class="cls-1" d="M101.5,165.5a64,64,0,1,1,118.37,33.7l4.28,2.64a69,69,0,1,0-117.65-.54l4.32-2.57A63.63,63.63,0,0,1,101.5,165.5Z"/><path class="cls-2" d="M165.5,331a165.37,165.37,0,0,0,140.81-78.52l-36.58-22.55a123.31,123.31,0,0,1-17.61,22.19,122.5,122.5,0,0,1-173.24,0,123.15,123.15,0,0,1-18.42-23.51l-37,21.93A165.39,165.39,0,0,0,165.5,331Z"/><path class="cls-2" d="M165.5,234.5a68.94,68.94,0,0,0,58.65-32.66l-4.28-2.64a64,64,0,0,1-109-.47l-4.32,2.57A69,69,0,0,0,165.5,234.5Z"/><path class="cls-3" d="M165.5,43a121.79,121.79,0,0,1,61.33,16.41l22.3-36.74A165.52,165.52,0,0,0,23.5,250.54l37-21.93A122.54,122.54,0,0,1,165.5,43Z"/><path class="cls-4" d="M165.5,43a121.88,121.88,0,0,1,58.56,14.86l20.45-37.8a165.53,165.53,0,0,0-221,230.48l37-21.93A122.54,122.54,0,0,1,165.5,43Z"/><polygon class="cls-5" points="245 20 206 91 234 26 245 20"/><path class="cls-1" d="M101.5,165.5a64,64,0,1,1,118.37,33.7l4.28,2.64a69,69,0,1,0-117.65-.54l4.32-2.57A63.63,63.63,0,0,1,101.5,165.5Z"/><path class="cls-6" d="M165.5,96.5a69,69,0,0,0-61,36.82l4.55,2.12A64,64,0,1,1,219.87,199.2l4.28,2.64A69,69,0,0,0,165.5,96.5Z"/><polygon class="cls-7" points="127.74 107.75 151 144 126 111 127.74 107.75"/><path class="cls-8" d="M165.5,96.5a68.63,68.63,0,0,0-36.89,10.7l2.83,4.15a64,64,0,0,1,88.43,87.85l4.28,2.64A69,69,0,0,0,165.5,96.5Z"/></g></g></svg>