<svg xmlns="http://www.w3.org/2000/svg" xmlns:xlink="http://www.w3.org/1999/xlink" viewBox="0 0 264.42 91.11"><defs><style>.cls-1{fill:url(#Degradado_sin_nombre_21);}.cls-2{fill:url(#Degradado_sin_nombre_27);}.cls-3{fill:#f78a07;}</style><linearGradient id="Degradado_sin_nombre_21" x1="130.09" y1="90.1" x2="128.64" y2="-121.54" gradientUnits="userSpaceOnUse"><stop offset="0.24" stop-color="#f78a07" stop-opacity="0"/><stop offset="0.28" stop-color="#f78a07" stop-opacity="0.05"/><stop offset="0.36" stop-color="#f78a07" stop-opacity="0.12"/><stop offset="0.46" stop-color="#f78a07" stop-opacity="0.16"/><stop offset="0.6" stop-color="#f78a07" stop-opacity="0.19"/><stop offset="1" stop-color="#f78a07" stop-opacity="0.2"/></linearGradient><linearGradient id="Degradado_sin_nombre_27" y1="45.56" x2="259.57" y2="45.56" gradientUnits="userSpaceOnUse"><stop offset="0" stop-color="#f78a07" stop-opacity="0"/><stop offset="0.26" stop-color="#f78a07" stop-opacity="0.32"/><stop offset="0.53" stop-color="#f78a07" stop-opacity="0.61"/><stop offset="0.75" stop-color="#f78a07" stop-opacity="0.82"/><stop offset="0.91" stop-color="#f78a07" stop-opacity="0.95"/><stop offset="1" stop-color="#f78a07"/></linearGradient></defs><g id="Capa_2" data-name="Capa 2"><g id="avg"><path class="cls-1" d="M258.62,34.68a2,2,0,0,0-3.75-.27l-11.48,24.5a2,2,0,0,1-3.34.47L223.24,40.16a2,2,0,0,0-3.39.57l-11.79,29.1a2,2,0,0,1-3.76-.07L181.85,7.6a2,2,0,0,0-3.75-.08l-3.79,9.2a2,2,0,0,1-3.37.57L159.77,4.72a2,2,0,0,0-3.48.94L148.2,46.09a2,2,0,0,1-3.76.53l-8.95-17.21a2,2,0,0,0-3.34-.35l-5.33,6.51a2,2,0,0,1-3.24-.18l-12-18.33a2,2,0,0,0-3.27-.13l-4,5.16a2,2,0,0,1-2.85.33l-6.13-4.9a2,2,0,0,0-3.18.95L82.24,49.14a2,2,0,0,1-3.49.64L69.69,38.45a2,2,0,0,0-1.57-.75H51.55a2,2,0,0,0-1.92,1.4l-.85,2.68-4,12.35a2,2,0,0,1-3.91-.35l-6.72-51a2,2,0,0,0-4,0l-10,85.55a2,2,0,0,1-3.92.37L4.67,51.76a2,2,0,0,0-3.76-.22"/><path class="cls-2" d="M18.16,91.11A2.93,2.93,0,0,1,15.31,89L3.72,52.06a1,1,0,0,0-.91-.71,1,1,0,0,0-1,.6L0,51.13a3,3,0,0,1,5.63.33L17.21,88.4a1,1,0,0,0,2-.19l10-85.55a2.94,2.94,0,0,1,3-2.66h0a3,3,0,0,1,3,2.62l6.71,51a1,1,0,0,0,.92.88,1,1,0,0,0,1-.7l4.81-15a3,3,0,0,1,2.87-2.09H68.12a3,3,0,0,1,2.35,1.13l9.06,11.33a1,1,0,0,0,1,.36,1,1,0,0,0,.78-.69l10-30.67a3.06,3.06,0,0,1,2-2,3,3,0,0,1,2.75.54l6.13,4.9a1,1,0,0,0,.76.22,1,1,0,0,0,.68-.39l4-5.16a3.07,3.07,0,0,1,2.5-1.16,3,3,0,0,1,2.4,1.37l12,18.33a1,1,0,0,0,.79.46,1,1,0,0,0,.84-.37l5.33-6.51a3,3,0,0,1,5,.52l9,17.21a1,1,0,0,0,1.89-.27l8.09-40.42a3,3,0,0,1,5.21-1.41l11.17,12.57a1,1,0,0,0,.93.32,1,1,0,0,0,.76-.61l3.79-9.2A3,3,0,0,1,180,5.27a3,3,0,0,1,2.76,2l22.45,62.16a1,1,0,0,0,.93.66,1,1,0,0,0,1-.63l11.8-29.1A3,3,0,0,1,224,39.5l16.82,19.22a1,1,0,0,0,.9.34,1,1,0,0,0,.78-.58L254,34a3,3,0,0,1,5.6.39l-1.91.59a1,1,0,0,0-.89-.71,1,1,0,0,0-1,.58L244.3,59.33a3,3,0,0,1-5,.71L222.48,40.82a1,1,0,0,0-1.7.28L209,70.2a3,3,0,0,1-2.85,1.88,3,3,0,0,1-2.77-2L180.91,7.94a1,1,0,0,0-.93-.67,1,1,0,0,0-1,.63l-3.79,9.2a3,3,0,0,1-5,.86L159,5.38a1,1,0,0,0-1.75.48l-8.09,40.43a3,3,0,0,1-5.62.79l-8.95-17.21a1,1,0,0,0-.8-.54,1,1,0,0,0-.89.37l-5.32,6.5a3,3,0,0,1-4.86-.26L110.79,17.61a1,1,0,0,0-.81-.46,1,1,0,0,0-.84.39l-4,5.16a3,3,0,0,1-4.27.5l-6.13-4.9a1,1,0,0,0-.92-.18,1,1,0,0,0-.67.66l-10,30.67a3,3,0,0,1-5.22,1L68.91,39.08a1,1,0,0,0-.79-.38H51.55a1,1,0,0,0-1,.7l-4.81,15a3,3,0,0,1-5.86-.53l-6.72-51a1,1,0,0,0-2,0l-10,85.55a3,3,0,0,1-2.71,2.65Z"/><circle class="cls-3" cx="259.92" cy="31.6" r="4.5"/></g></g></svg>