<svg xmlns="http://www.w3.org/2000/svg" viewBox="0 0 12.38 21.23"><defs><style>.cls-1{fill:#fff;}</style></defs><g id="Capa_2" data-name="Capa 2"><g id="climatizador_y_volumen" data-name="climatizador y volumen"><path class="cls-1" d="M6.19,14.4a3.62,3.62,0,0,0,3.42-3.79V3.79A3.62,3.62,0,0,0,6.19,0,3.63,3.63,0,0,0,2.76,3.79v6.82A3.63,3.63,0,0,0,6.19,14.4ZM4.13,3.79A2.18,2.18,0,0,1,6.19,1.52,2.17,2.17,0,0,1,8.24,3.79v6.82a2.18,2.18,0,0,1-2,2.28,2.18,2.18,0,0,1-2.06-2.28Z"/><path class="cls-1" d="M12.35,9.78a.71.71,0,0,0-.75-.68.73.73,0,0,0-.61.83,5.93,5.93,0,0,1-1.28,4.22,4.59,4.59,0,0,1-3.52,1.77,4.57,4.57,0,0,1-3.52-1.77A5.88,5.88,0,0,1,1.39,9.93.74.74,0,0,0,.78,9.1.71.71,0,0,0,0,9.78a7.54,7.54,0,0,0,1.62,5.39,6.07,6.07,0,0,0,3.86,2.22s0,0,0,.05v2.27h-2a.76.76,0,0,0,0,1.52H8.93a.76.76,0,0,0,0-1.52H6.87V17.44a.09.09,0,0,0,0-.05,6,6,0,0,0,3.86-2.22A7.5,7.5,0,0,0,12.35,9.78Z"/></g></g></svg>