<svg xmlns="http://www.w3.org/2000/svg" viewBox="0 0 30.22 30"><defs><style>.cls-1{fill:#fff;}</style></defs><g id="Capa_2" data-name="Capa 2"><g id="climatizador_y_volumen" data-name="climatizador y volumen"><path class="cls-1" d="M15.25,3.56a11,11,0,0,0-2.45.28A11.4,11.4,0,0,0,15,26.44a11.16,11.16,0,0,0,2.33-.26A11.4,11.4,0,0,0,15.25,3.56ZM9.41,10.5a15.47,15.47,0,0,1-1.62.85,9.34,9.34,0,0,1-2,.61,10,10,0,0,1,7.07-6.67A10.28,10.28,0,0,1,15,5.05a10,10,0,0,1,9.47,6.85,10.85,10.85,0,0,1-3.63-1.46,10,10,0,0,0-5.56-1.89,8.34,8.34,0,0,0-1.95.23A11.68,11.68,0,0,0,9.41,10.5Zm2,13.85a10,10,0,0,1-5.76-5.76h2.9a2.75,2.75,0,0,1,2.86,2.86Zm7.41-.06v-2.9a2.72,2.72,0,0,1,1.63-2.61l.33-.11.06,0a3.31,3.31,0,0,1,.55-.06h.05l0,0,.2,0h2.9A10,10,0,0,1,18.82,24.29Zm2.85-7.18a4.51,4.51,0,0,0-1.05.14,4.32,4.32,0,0,0-3.51,4.2v3.32a10.29,10.29,0,0,1-1.86.18,10.16,10.16,0,0,1-2.14-.23V21.39a4.31,4.31,0,0,0-4.27-4.28H7.61l.06.06H5.22A10,10,0,0,1,5,15.82l.29.06c0-.3-.05-.6-.05-.91a12.29,12.29,0,0,1,.11-1.49,11.16,11.16,0,0,0,3.32-1c.58-.26,1.09-.54,1.58-.82a12,12,0,0,1,3.32-1.51A8,8,0,0,1,15,10a9,9,0,0,1,5,1.69,12.4,12.4,0,0,0,4.89,1.78A11,11,0,0,1,25,15a9.08,9.08,0,0,1-.05.91l.28-.06A9.84,9.84,0,0,1,25,17.11Z"/><path class="cls-1" d="M30.22,15a15,15,0,0,0-15-15,14.37,14.37,0,0,0-3.16.35A15,15,0,0,0,15,30a13.92,13.92,0,0,0,2.9-.31A15,15,0,0,0,30.22,15ZM18.53,28.22h0l-.8.19a13.08,13.08,0,0,1-6-.25v.13a13.72,13.72,0,0,1-10.33-12l.28-.14c0-.38,0-.76,0-1.15A13.71,13.71,0,0,1,12.35,1.62,13.3,13.3,0,0,1,15,1.36,13.71,13.71,0,0,1,28.64,15c0,.39,0,.77-.06,1.15l.27.14A13.7,13.7,0,0,1,18.53,28.22Z"/><path class="cls-1" d="M15.25,11.41a3.49,3.49,0,0,0-.86.11A3.56,3.56,0,0,0,15,18.59a3.43,3.43,0,0,0,.86-.11,3.56,3.56,0,0,0-.58-7.07Zm0,5.7a2.13,2.13,0,0,1-.58-4.19l.3,0a2.14,2.14,0,0,1,.59,4.19A3,3,0,0,1,15.25,17.11Z"/></g></g></svg>