<svg xmlns="http://www.w3.org/2000/svg" viewBox="0 0 12.77 17.38"><defs><style>.cls-1{fill:#384560;}</style></defs><g id="Capa_2" data-name="Capa 2"><g id="layers_background" data-name="layers background"><path class="cls-1" d="M11.87.33h0A2,2,0,0,0,10.36,0,2,2,0,0,0,9.1.91a1.94,1.94,0,0,0-.29,1.5,2.12,2.12,0,0,0,.48.93L2.64,13.49a2.22,2.22,0,0,0-.37-.09A2,2,0,1,0,3.21,17a2,2,0,0,0,.38-2.81l-.12-.12L10.13,3.89A2,2,0,0,0,11.87.33ZM2.6,16.18A1,1,0,0,1,1.2,16a1,1,0,0,1,.19-1.4A1,1,0,0,1,2,14.38h.13a1,1,0,0,1,.66.39h0a1,1,0,0,1,.19.74A1,1,0,0,1,2.6,16.18Zm9-13.63a1,1,0,0,1-1.39.29,1,1,0,0,1-.43-.63,1.07,1.07,0,0,1,.14-.76A1.06,1.06,0,0,1,10.57,1l.2,0a1,1,0,0,1,.55.17A1,1,0,0,1,11.61,2.55Z"/></g></g></svg>