<svg xmlns="http://www.w3.org/2000/svg" xmlns:xlink="http://www.w3.org/1999/xlink" viewBox="0 0 41 41"><defs><style>.cls-1,.cls-2{fill:#fff;stroke-miterlimit:10;}.cls-1{stroke:url(#Degradado_sin_nombre_4);}.cls-2{stroke:url(#Degradado_sin_nombre_4-2);}</style><linearGradient id="Degradado_sin_nombre_4" y1="20.5" x2="41" y2="20.5" gradientUnits="userSpaceOnUse"><stop offset="0.05" stop-color="#1f2a3c"/><stop offset="1" stop-color="#131927"/></linearGradient><linearGradient id="Degradado_sin_nombre_4-2" x1="14.23" y1="20.49" x2="28.09" y2="20.49" xlink:href="#Degradado_sin_nombre_4"/></defs><g id="Capa_2" data-name="Capa 2"><g id="radio"><g id="play"><path class="cls-1" d="M20.5.5a20,20,0,1,0,20,20A20,20,0,0,0,20.5.5Zm0,37.14A17.14,17.14,0,1,1,37.64,20.5,17.14,17.14,0,0,1,20.5,37.64Z"/><path class="cls-2" d="M26.21,18.06l-7.64-4.37a2.45,2.45,0,0,0-2.48,0,2.83,2.83,0,0,0-1.36,2.42v8.75a2.84,2.84,0,0,0,1.36,2.43,2.43,2.43,0,0,0,1.24.34,2.58,2.58,0,0,0,1.24-.33l7.64-4.36a2.84,2.84,0,0,0,0-4.88Zm-8.57,6.53V16.41l7.22,4.09Z"/></g></g></g></svg>