<svg xmlns="http://www.w3.org/2000/svg" viewBox="0 0 19.17 15.16"><defs><style>.cls-1{fill:#fff;}</style></defs><g id="Capa_2" data-name="Capa 2"><g id="climatizador_y_volumen" data-name="climatizador y volumen"><path class="cls-1" d="M17.08,7.24,15.75,7V6.82C15.75,3.06,13,0,9.59,0S3.42,3.06,3.42,6.82V7l-1.33.29A2.81,2.81,0,0,0,0,10.42l.28,2.12a2.74,2.74,0,0,0,2.06,2.38l1,.21.33,0a1.58,1.58,0,0,0,1.14-.49,1.92,1.92,0,0,0,.52-1.55L4.77,7.68a.3.3,0,0,0,0-.1V6.82a5.07,5.07,0,0,1,4.8-5.3,5.07,5.07,0,0,1,4.79,5.3v.76a.3.3,0,0,0,0,.1l-.56,5.44a1.92,1.92,0,0,0,.52,1.55,1.62,1.62,0,0,0,1.15.49,1.73,1.73,0,0,0,.32,0l1-.21a2.76,2.76,0,0,0,2.07-2.38l.28-2.12A2.82,2.82,0,0,0,17.08,7.24ZM3.88,13.55a.28.28,0,0,1-.28.09l-1-.21a1.28,1.28,0,0,1-1-1.11L1.38,10.2a1.31,1.31,0,0,1,1-1.47l1.13-.25L4,13.29A.32.32,0,0,1,3.88,13.55ZM17.79,10.2l-.28,2.12a1.28,1.28,0,0,1-1,1.11l-1,.21a.29.29,0,0,1-.28-.09.32.32,0,0,1-.09-.26l.49-4.81,1.13.25A1.3,1.3,0,0,1,17.79,10.2Z"/></g></g></svg>