<svg xmlns="http://www.w3.org/2000/svg" viewBox="0 0 24.6 17.72"><defs><style>.cls-1{fill:#8e929b;}</style></defs><g id="Capa_2" data-name="Capa 2"><g id="hyundai_santa_fe" data-name="hyundai santa fe"><path class="cls-1" d="M9.72,0A9.54,9.54,0,0,0,0,9.36v8.36H14.87a9.56,9.56,0,0,0,9.72-9.34V0Zm0,1H23.61v7.4a8.54,8.54,0,0,1-8.73,8.35H1V9.36A8.56,8.56,0,0,1,9.72,1ZM11.8,5.83h-.24c-1.67,0-2.71,1.15-2.71,3s1,3,2.72,3A2.31,2.31,0,0,0,14.06,10h-.93a1.51,1.51,0,0,1-1.57,1.07c-1.08,0-1.76-.84-1.76-2.19s.68-2.19,1.76-2.19a1.53,1.53,0,0,1,1.57,1.16h.93A2.36,2.36,0,0,0,11.8,5.83Zm6.06,0a2.72,2.72,0,0,0-2.82,3,2.71,2.71,0,0,0,2.81,3,2.71,2.71,0,0,0,2.81-3A2.71,2.71,0,0,0,17.86,5.84ZM3.93,5.91v5.9H7.75V11H4.86V9.2H7.59V8.41H4.86V6.74H7.75V5.91Zm13.93.76c1.14,0,1.84.85,1.84,2.19s-.7,2.19-1.84,2.19S16,10.19,16,8.86,16.72,6.67,17.86,6.67Z"/></g></g></svg>