<svg xmlns="http://www.w3.org/2000/svg" viewBox="0 0 30.64 33.62"><defs><style>.cls-1{opacity:0.5;}.cls-2{fill:#fff;}.cls-3{opacity:0.2;}</style></defs><g id="Capa_2" data-name="Capa 2"><g id="km_h" data-name="km/h"><g class="cls-1"><path class="cls-2" d="M29.25,20.14,16.1,33.1a1.77,1.77,0,0,1-3-1.26h0a1.75,1.75,0,0,1,.55-1.28L27.88,16.88v-.14L13.63,3.06a1.79,1.79,0,0,1-.55-1.28h0a1.78,1.78,0,0,1,3-1.27l13.15,13a4.68,4.68,0,0,1,1.39,3.33h0A4.68,4.68,0,0,1,29.25,20.14Z"/><g class="cls-1"><path class="cls-2" d="M16.81,19.09,7.82,28a1.22,1.22,0,0,1-2.07-.87h0a1.26,1.26,0,0,1,.37-.88l9.76-9.35v-.1L6.12,7.4a1.24,1.24,0,0,1-.37-.88h0a1.22,1.22,0,0,1,2.07-.86l9,8.87a3.2,3.2,0,0,1,1,2.28h0A3.24,3.24,0,0,1,16.81,19.09Z"/></g><g class="cls-3"><path class="cls-2" d="M6.73,18.19l-5.47,5.4A.74.74,0,0,1,0,23.07H0a.74.74,0,0,1,.23-.54l5.93-5.69v-.06L.23,11.08A.72.72,0,0,1,0,10.55H0A.74.74,0,0,1,1.26,10l5.47,5.4a2,2,0,0,1,.58,1.39h0A1.93,1.93,0,0,1,6.73,18.19Z"/></g></g></g></g></svg>