<svg xmlns="http://www.w3.org/2000/svg" viewBox="0 0 40.76 231"><defs><style>.cls-1{fill:#2e3746;}.cls-2{fill:#35d9f2;}.cls-3{fill:#8e929b;}.cls-4{font-size:18.42px;fill:#fff;font-family:VisbyCF-Bold, Visby CF;font-weight:700;letter-spacing:-0.01em;}.cls-5{letter-spacing:-0.07em;}.cls-6,.cls-7{font-size:10.74px;}.cls-6,.cls-8{font-family:VisbyCF-Regular, Visby CF;font-weight:400;}.cls-6{letter-spacing:-0.06em;}.cls-7,.cls-8{fill:#5a7196;}.cls-7{letter-spacing:0em;}.cls-8{font-size:24.56px;letter-spacing:-0.01em;}</style></defs><g id="Capa_2" data-name="Capa 2"><g id="hyundai_santa_fe" data-name="hyundai santa fe"><rect class="cls-1" x="16.3" y="38" width="8" height="154" rx="4"/><rect class="cls-2" x="16.3" y="142" width="8" height="50" rx="4"/><path class="cls-3" d="M18,0H18a.43.43,0,0,0-.32.41V2.69a.45.45,0,0,0,0,.36V6a.53.53,0,0,0,0,.25v3a.49.49,0,0,0,0,.24v2a2.46,2.46,0,1,0,.82,0V9.83h2.05a.39.39,0,0,0,.36-.2.43.43,0,0,0,0-.41.39.39,0,0,0-.36-.2H18.46V6.56h2.05a.41.41,0,0,0,.36-.2.43.43,0,0,0,0-.41.42.42,0,0,0-.36-.21H18.46V3.29h2.05a.43.43,0,0,0,.36-.2.45.45,0,0,0,0-.42.41.41,0,0,0-.36-.2H18.46V.42a.38.38,0,0,0-.13-.31A.41.41,0,0,0,18,0Zm0,12.29h0a1.64,1.64,0,1,1,0,3.27,1.64,1.64,0,0,1,0-3.27ZM8.94,13.52a.41.41,0,0,0-.36.46.43.43,0,0,0,.47.36,4.16,4.16,0,0,1,.69.17,2.83,2.83,0,0,0,.95.24,2.77,2.77,0,0,0,.94-.24,4.71,4.71,0,0,1,.69-.17,4.44,4.44,0,0,1,.7.17,2.77,2.77,0,0,0,.94.24.41.41,0,0,0,.36-.21.43.43,0,0,0,0-.41.4.4,0,0,0-.36-.2,5,5,0,0,1-.69-.18,3.07,3.07,0,0,0-.95-.23,3.08,3.08,0,0,0-.94.23,5.39,5.39,0,0,1-.69.18,5,5,0,0,1-.69-.18,3.07,3.07,0,0,0-.95-.23H8.94Zm14.84,0a3,3,0,0,0-.94.23,5.87,5.87,0,0,1-.69.18.4.4,0,0,0-.36.2.38.38,0,0,0,0,.41.41.41,0,0,0,.36.21,2.83,2.83,0,0,0,.94-.24,4.42,4.42,0,0,1,.69-.17,4.42,4.42,0,0,1,.69.17,2.83,2.83,0,0,0,1,.24,2.77,2.77,0,0,0,.94-.24,4.44,4.44,0,0,1,.7-.17.4.4,0,0,0,.35-.21.38.38,0,0,0,0-.41.39.39,0,0,0-.35-.2,3.07,3.07,0,0,0-.95.23,5.39,5.39,0,0,1-.69.18,5,5,0,0,1-.69-.18A3.14,3.14,0,0,0,23.78,13.52ZM10.64,17.28h0a.42.42,0,0,0-.33.33.41.41,0,0,0,.2.42,4.82,4.82,0,0,0,2.67.8,4.87,4.87,0,0,0,2.46-.67,4.83,4.83,0,0,0,4.91,0A4.85,4.85,0,0,0,25.64,18a.39.39,0,0,0,.21-.36.38.38,0,0,0-.22-.36.41.41,0,0,0-.43,0A4.07,4.07,0,0,1,23,18a4.15,4.15,0,0,1-2.12-.6.37.37,0,0,0-.32-.14h-.1a.42.42,0,0,0-.24.14,4.09,4.09,0,0,1-4.25,0,.4.4,0,0,0-.41-.13h0a.42.42,0,0,0-.24.14,4.15,4.15,0,0,1-2.13.59,4.06,4.06,0,0,1-2.23-.67.48.48,0,0,0-.23-.07Z"/><text class="cls-4" transform="translate(0 224.86)">2<tspan class="cls-5" x="9.96" y="0">8</tspan><tspan class="cls-6" x="19.1" y="0"> </tspan><tspan class="cls-7" x="20.74" y="-7.67">o</tspan><tspan class="cls-8" x="27.13" y="0">c</tspan></text></g></g></svg>