<svg xmlns="http://www.w3.org/2000/svg" viewBox="0 0 33.16 230.51"><defs><style>.cls-1{fill:#2e3746;}.cls-2{fill:#35d9f2;}.cls-3{fill:#8e929b;}.cls-4{font-size:18.42px;fill:#fff;font-family:VisbyCF-Bold, Visby CF;font-weight:700;letter-spacing:-0.01em;}.cls-5{fill:#5a7196;font-size:20px;letter-spacing:0em;}</style></defs><g id="Capa_2" data-name="Capa 2"><g id="hyundai_santa_fe" data-name="hyundai santa fe"><rect class="cls-1" x="13.3" y="37.59" width="8" height="154" rx="4"/><rect class="cls-2" x="13.3" y="91.59" width="8" height="100" rx="4"/><path class="cls-3" d="M16.22,0a9.41,9.41,0,1,0,9.42,9.41A9.42,9.42,0,0,0,16.22,0Zm0,.82A8.59,8.59,0,1,1,7.63,9.41c0-.15,0-.3,0-.44A8.58,8.58,0,0,1,16.22.82Zm0,.81a.4.4,0,0,0-.4.42V3.7a5.71,5.71,0,0,0-3.34,1.39L11.31,3.91a.42.42,0,0,0-.3-.12.41.41,0,0,0-.41.41.39.39,0,0,0,.13.29l1.44,1.45a.41.41,0,0,0,.58,0l.05,0a4.9,4.9,0,0,1,3.36-1.4h.13a4.93,4.93,0,0,1,3.36,1.39.41.41,0,0,0,.57.1l.06,0,1.44-1.45a.41.41,0,0,0,0-.58.42.42,0,0,0-.3-.12.45.45,0,0,0-.29.12L20,5.09A5.71,5.71,0,0,0,16.63,3.7V2.05a.4.4,0,0,0-.4-.42Zm-7,6v4.73h2.13v-.8H10.13V10.24H11.2V9.48H10.13V8.39h1.13v-.8Zm12,0v4.73h.92v-2h1.06V9.61H22.17V8.39H23.3v-.8Zm-1.38.93a.13.13,0,0,0-.08,0l-4,2.59a1.14,1.14,0,0,0-.48.31,1.28,1.28,0,0,0,0,1.67,1.27,1.27,0,0,0,1.83,0,1,1,0,0,0,.24-.42l2.58-4A.13.13,0,0,0,19.87,8.52Zm-3.65,3.35a.38.38,0,0,1,.31.11.47.47,0,0,1,.1.3.46.46,0,0,1-.1.29.35.35,0,0,1-.31.11.34.34,0,0,1-.3-.11.46.46,0,0,1-.1-.29.47.47,0,0,1,.1-.3A.37.37,0,0,1,16.22,11.87Z"/><text class="cls-4" transform="translate(0 224.45)">76<tspan class="cls-5" x="19.3" y="0">%</tspan></text></g></g></svg>