<svg xmlns="http://www.w3.org/2000/svg" viewBox="0 0 261 32"><defs><style>.cls-1{fill:#262f40;}.cls-2{fill:#59667c;}</style></defs><g id="Capa_2" data-name="Capa 2"><g id="radio"><path class="cls-1" d="M10.64,0h1.9c0,.31.05.59.05.87l-.06,30.18c0,.46.12.93-.87.93s-.89-.45-.88-.92v-1q-.07-14.49-.14-29Z"/><path class="cls-1" d="M25,0h2V1c0,4.65,0,9.31,0,14,0,5.4-.09,10.8-.13,16.19,0,.49,0,.91-.92.9s-.84-.41-.84-.85c0-.69,0-1.38,0-2.07L25,1.16Z"/><path class="cls-2" d="M125.57,0h1.88c0,.34.06.65.06,1,0,4.34,0,8.68,0,13,0,5.69-.09,11.38-.13,17.07,0,.46.12.92-.87.93s-.88-.45-.88-.92c0-1.67,0-3.33,0-5L125.57,1Z"/><path class="cls-2" d="M104,0h1.86V31.83c-1.64.32-1.8.24-1.8-.86V22.52L104,1.09Z"/><path class="cls-1" d="M75.34,0h1.79v20.4h-.3c-.78-1.3-.09-2.75-.6-4.09,0,1.2-.4,2.5.08,3.57,1.68,3.78.34,7.62.8,11.41.06.46-.18.67-.85.68s-.92-.31-.92-.82q0-7.37,0-14.75c0-5.2,0-10.41-.06-15.61C75.29.57,75.32.32,75.34,0Z"/><path class="cls-2" d="M118.48,31.81V0h1.73a5.82,5.82,0,0,1,.08.73q0,7.33,0,14.66c0,5.2-.06,10.4-.08,15.6C120.21,32.06,120,32.15,118.48,31.81Z"/><path class="cls-1" d="M39.54,31.82V0h1.77c0,.35,0,.7,0,1.06q0,15-.07,30C41.24,32.05,41,32.15,39.54,31.82Z"/><path class="cls-1" d="M84,21.16c.11.21.33.41.33.62,0,3.1,0,6.21,0,9.31,0,.48,0,.92-.92.9s-.91-.38-.91-.9c0-4.11,0-8.22,0-12.33q0-8.79,0-17.58V0h1.89V16.79c-1.32-.14-1.51,0-1.52,1s0,2.07.05,3.1c0,.2.24.39.36.59l.81-.32Z"/><path class="cls-2" d="M111.18,2.09h2V3q0,13-.07,26c0,.46.14.93-.85.93s-.91-.43-.9-.91c0-1,0-1.95,0-2.93q-.07-11.25-.14-22.5C111.17,3.1,111.18,2.65,111.18,2.09Z"/><path class="cls-1" d="M32.18,2.21H34V29.62c-1.49.32-1.65.24-1.65-.89,0-4,0-7.93,0-11.89q0-6.81-.13-13.62Z"/><path class="cls-1" d="M18,2.22h1.71V29.69H18Z"/><path class="cls-1" d="M43.07,16.4V3.33h1.79c0,.25.07.49.07.74q0,11.87-.06,23.73c0,.56-.07,1-1,.87-.32-.06-.8-.38-.8-.59C43,25,43,21.87,43,18.76a1.35,1.35,0,0,1,.43-.75,10,10,0,0,1,1-.85Z"/><path class="cls-1" d="M69.92,29.81H68.24V2.12h1.68Z"/><path class="cls-1" d="M50.26,28.57V3.32h1.83v1L52,27.64C52,28.79,52,28.84,50.26,28.57Z"/><path class="cls-1" d="M93.3,17.26V3.32h1.81a1.81,1.81,0,0,1,.08.34c0,5-.09,10-.11,15,0,3.05,0,6.1.06,9.14,0,.57-.1,1-1,.87-.32-.06-.78-.39-.78-.6-.06-1.95,0-3.9,0-5.86a.64.64,0,0,1,.16-.48c1.36-1.18.79-2.52.54-3.82,0-.24-.46-.44-.7-.65Z"/><path class="cls-1" d="M28.73,4.35h1.71V27.57H28.73Z"/><path class="cls-1" d="M7.18,4.35H8.86V27.58H7.18Z"/><path class="cls-2" d="M109.44,27.58h-1.73V4.36h1.73Z"/><path class="cls-2" d="M131,27.58h-1.64V4.36H131Z"/><path class="cls-1" d="M14.36,5.31h1.73a1.83,1.83,0,0,1,.11.37c0,3.59-.08,7.17-.11,10.76q0,4.69,0,9.39c0,.53-.1.89-1,.85-.58,0-.8-.16-.8-.61q0-10.25,0-20.5A1.17,1.17,0,0,1,14.36,5.31Z"/><path class="cls-2" d="M123.84,26.55c-1.65.23-1.75.18-1.75-.92,0-3,0-5.91,0-8.87,0-3.53-.09-7-.14-10.58V5.34h1.89Z"/><path class="cls-1" d="M48.19,17.76c-1.64.78-1.68,1.85-.43,2.58a6,6,0,0,1,.89.88c-1.39,0-2-.32-2-1.13q0-9.9,0-19.81A.8.8,0,0,1,46.67,0h1.87c-.24,6.43.36,12.89-.39,19.19l.11-.17.1,0c0,.34,0,.68,0,1C47,19.79,46.84,19,48.19,17.76Z"/><path class="cls-1" d="M102.29,25.28c-1.65.25-1.73.22-1.74-.9,0-2.18,0-4.36.13-6.57l.24.43c.08-.23.19-.37.16-.5a17.48,17.48,0,0,1-.63-2.9c-.1-2.44,0-4.88,0-7.32V6.57h1.88Z"/><path class="cls-1" d="M61,0h1.84V.92c0,4.8,0,9.59,0,14.38,0,1-.3,1.59-1.86,1.59Z"/><path class="cls-1" d="M98.44,20.48c-1.32-1.23-1.22-2,.31-2.38-1.54.83.09,1.59-.12,2.4a2.7,2.7,0,0,0,0,.7c-1,0-1.69-.15-1.7-1q0-8.88-.07-17.74a1.84,1.84,0,0,1,.09-.38h1.74a8.22,8.22,0,0,1,.08.88q0,6.15,0,12.31a9.2,9.2,0,0,1-.13,1.89,1.34,1.34,0,0,1-.65.69C96.71,18.64,96.8,19.76,98.44,20.48Z"/><path class="cls-1" d="M58.1,17.89A6.27,6.27,0,0,1,57.43,16c-.07-3.12,0-6.25,0-9.44h1.76a1.63,1.63,0,0,1,.1.41c0,5.92-.06,11.84-.07,17.77,0,.48-.24.66-.88.65s-.92-.12-.89-.64c0-.87,0-1.73,0-2.59,0-.17,0-.42.1-.49,1.9-1.17.86-2.55.52-3.88Z"/><path class="cls-1" d="M53.83,16.88V2.12h1.82c0,.28.05.54.05.79q0,6.2,0,12.39C55.7,16.62,55.7,16.62,53.83,16.88Z"/><path class="cls-1" d="M3.65,8.87H5.43v.91q-.07,6.15-.14,12.31c0,1,0,1-1.64.92Z"/><path class="cls-2" d="M132.73,8.86h1.87v14c-1.47.38-1.72.26-1.74-.78q-.06-6.1-.13-12.23C132.72,9.57,132.73,9.26,132.73,8.86Z"/><path class="cls-1" d="M86.13,17.49V4.35H88v1c0,3.11,0,6.21,0,9.32C88.05,15.81,88.08,17,86.13,17.49Z"/><path class="cls-1" d="M79,20V5.32h1.72a2.26,2.26,0,0,1,.09.42q0,6.24-.07,12.48c0,.14,0,.32-.08.41C80.16,19.07,79.63,19.48,79,20Z"/><path class="cls-1" d="M62.39,17.85c-.72.19-.72.19-1.31,3a20.32,20.32,0,0,1,.07-3.22c0-.28.89-.5,1.37-.75l.28.2v1.35q0,6.34,0,12.67c0,.49,0,.91-.91.91s-.85-.48-.86-.93c0-2.9-.18-5.81.09-8.7.11-1.27.61-2.54.67-3.84C61.81,18.3,62.17,18.09,62.39,17.85Z"/><path class="cls-1" d="M64.64,4.34h1.75a4.2,4.2,0,0,1,.09.53c0,3.54,0,7.08,0,10.61,0,1.17,0,1.19-1.84,1.25Z"/><path class="cls-1" d="M35.89,16.58V6.6h1.87v1c0,3.91-.1,7.81-.14,11.72,0,.45,0,.91-.82.9s-1-.39-.95-.93S35.71,18,37,17.81c.17,0,.39-.4.38-.62s-.29-.36-.52-.46A5.27,5.27,0,0,0,35.89,16.58Z"/><path class="cls-1" d="M21.52,9.75h1.85c0,2,0,4,0,5.9s-.05,3.91-.06,5.86c0,.44-.12.71-.81.71s-1-.18-1-.7c0-3.82-.08-7.64-.11-11.46A1.09,1.09,0,0,1,21.52,9.75Z"/><path class="cls-2" d="M116.74,9.75c0,2,0,3.86,0,5.75s-.1,3.9-.14,5.85c0,.46,0,.86-.85.87s-.91-.3-.91-.8q0-5.52,0-11a5.5,5.5,0,0,1,.06-.63Z"/><path class="cls-1" d="M46.69,21.25c1.38.06,1.77.56,1.74,1.56-.1,2.79,0,5.58,0,8.37,0,.48,0,.82-.9.82s-.86-.38-.86-.84c0-3.14,0-6.27,0-9.41C46.65,21.59,46.68,21.42,46.69,21.25Z"/><path class="cls-1" d="M87.18,18.32c0,.74,0,1.47,0,2.2,0,.22-.33.43-.5.64-.14-.21-.38-.42-.39-.64a10.09,10.09,0,0,1,0-2,1.56,1.56,0,0,1,1.48-1.44V27.49c-1.48.25-1.65.17-1.65-.87,0-1.63,0-3.27,0-5,1.31-.09,1.43-.74,1.35-1.53a15.1,15.1,0,0,1,0-1.78Z"/><path class="cls-1" d="M97,29.81V21.28c1.7.26,1.7.26,1.7,1.48v7Z"/><path class="cls-1" d="M53.8,21.37c1.57,0,1.84.55,1.8,1.48-.08,2.06,0,4.12,0,6.18,0,.52-.08.89-1,.87s-.81-.45-.81-.89Z"/><path class="cls-1" d="M66.34,22.87c0,1.35,0,2.7,0,4,0,.5-.18.75-.9.75s-.89-.27-.88-.75c0-1.61-.06-3.22,0-4.82a24.59,24.59,0,0,1,.6-3.6c0-.18.42-.33.64-.49.17.19.47.38.48.57,0,1.43,0,2.86,0,4.3Z"/><path class="cls-1" d="M89.62,8.86h1.89c0,2.48,0,4.9-.05,7.32,0,.32-.81.63-1.41.86C89.42,14.29,89.76,11.62,89.62,8.86Z"/><path class="cls-1" d="M73.59,9.69c0,2.21.08,4.33-.07,6.44,0,.43-.94.82-1.45,1.22l-.39-.1c0-2.36,0-4.73,0-7.09,0-.16.35-.4.59-.45A7.79,7.79,0,0,1,73.59,9.69Z"/><path class="cls-1" d="M0,12.44H1.75v6.14c0,1.08-.14,1.15-1.75.82Z"/><path class="cls-2" d="M136.41,12.43h1.77v6.94c-1.56.39-1.77.28-1.77-.84C136.4,16.53,136.41,14.52,136.41,12.43Z"/><path class="cls-1" d="M80.42,20.76l-1.25.48-.3-.17,1.46-2,.31.08V26.6H79c0-1.59,0-3.18,0-4.78,0-.15.39-.3.61-.43s.6-.35.9-.52Z"/><path class="cls-1" d="M89.86,17.42l1.65-.5c0,2,0,3.84-.06,5.69,0,.22-.86.41-1.56.73,0-.93-.63-1.59.66-1.94.23-.06.34-.55.36-.84,0-.87,0-1.74,0-2.58-.78.93.24,2.29-.6,3.29l-.46-.07Z"/><path class="cls-1" d="M37,21.33c-.46-.1-1.38,0-1-.85H37.6c0,1.52,0,3-.07,4.52,0,.2-.91.35-1.66.63A35.19,35.19,0,0,1,35.92,22C36,21.75,36.62,21.55,37,21.33Z"/><path class="cls-1" d="M73.49,22.25,71.91,22c.18-.37.38-.73.53-1.1A12.88,12.88,0,0,0,73,19.4a9.2,9.2,0,0,0,.19-1.17l.31,0Z"/><path class="cls-1" d="M84,21.14c-.58.19-.92,0-.93-.43,0-1.07,0-2.13,0-3.19,0-.17.29-.34.45-.51.14.18.41.35.41.53,0,1.21,0,2.42,0,3.62Z"/><path class="cls-1" d="M71.89,20.77c-.14-2.09-.2-3.75,1.57-3.66l-1.23,3.72Z"/><path class="cls-1" d="M54.55,18.1l1-.08v2.12c-1.4-.16-1.66-.79-.92-2.07Z"/><path class="cls-1" d="M58.1,17.89l-.05-.06A11.6,11.6,0,0,1,58,21.21h-.51c0-1.09,0-2.18,0-3.26A4,4,0,0,1,58.1,17.89Z"/><path class="cls-1" d="M93.3,17.26a5.41,5.41,0,0,1,.46,3.95H93.3v-4Z"/><path class="cls-1" d="M64.57,20.81V18.18c0-1.12.12-1.19,2-1.15-.29.3-.45.63-.69.66-.87.14-1,.59-1.08,1.14,0,.34,0,.68,0,1v.94Z"/><path class="cls-1" d="M54.59,18.07l-.7.39c-.19-1.22,0-1.38,1.61-1.45.52.77-.75.68-1,1.09Z"/><path class="cls-1" d="M55.56,21.26c-1.63-.15-1.85-.34-1.64-1.59C54.19,20.48,55.72,20.23,55.56,21.26Z"/><path class="cls-1" d="M35.76,17.57a3.47,3.47,0,0,1,.66-.61c.09-.05.44.18.67.28l-1,.6Z"/><path class="cls-2" d="M147.84,0h2V1c0,4.65,0,9.31,0,14,0,5.4-.1,10.8-.14,16.19,0,.49,0,.91-.92.9s-.84-.41-.83-.85V29.08q0-14-.07-27.92Z"/><path class="cls-2" d="M248.39,0h1.89c0,.34.05.65.05,1,0,4.34,0,8.68,0,13,0,5.69-.08,11.38-.12,17.07,0,.46.11.92-.87.93s-.89-.45-.89-.92c0-1.67,0-3.33,0-5q0-12.54-.07-25.09Z"/><path class="cls-2" d="M226.83,0h1.86V31.83c-1.63.32-1.8.24-1.8-.86,0-2.82,0-5.64,0-8.45l-.06-21.43Z"/><path class="cls-2" d="M198.17,0H200v20.4h-.3c-.78-1.3-.09-2.75-.59-4.09,0,1.2-.41,2.5.07,3.57,1.68,3.78.34,7.62.81,11.41.05.46-.19.67-.85.68-.82,0-.93-.31-.92-.82q0-7.37,0-14.75c0-5.2,0-10.41-.06-15.61C198.11.57,198.15.32,198.17,0Z"/><path class="cls-2" d="M241.3,31.81V0H243a5.82,5.82,0,0,1,.09.73c0,4.89,0,9.77,0,14.66,0,5.2-.06,10.4-.08,15.6C243,32.06,242.86,32.15,241.3,31.81Z"/><path class="cls-2" d="M162.36,31.82V0h1.78V1.08q0,15-.07,30C164.06,32.05,163.84,32.15,162.36,31.82Z"/><path class="cls-2" d="M206.83,21.16c.12.21.33.41.34.62,0,3.1,0,6.21,0,9.31,0,.48,0,.92-.93.9s-.91-.38-.91-.9c0-4.11,0-8.22,0-12.33q0-8.79,0-17.58V0h1.89V16.79c-1.31-.14-1.5,0-1.51,1s0,2.07,0,3.1c0,.2.24.39.37.59l.8-.32Z"/><path class="cls-2" d="M234,2.09h2V3q0,13-.07,26c0,.46.14.93-.85.93s-.9-.43-.9-.91c0-1,0-1.95,0-2.93q-.06-11.25-.14-22.5Z"/><path class="cls-2" d="M155,2.21h1.78V29.62c-1.5.32-1.65.24-1.65-.89,0-4,0-7.93,0-11.89,0-4.54-.08-9.08-.12-13.62Z"/><path class="cls-2" d="M140.79,2.22h1.71V29.69h-1.71Z"/><path class="cls-2" d="M165.89,16.4V3.33h1.79a6.17,6.17,0,0,1,.07.74c0,7.91-.05,15.82-.05,23.73,0,.56-.08,1-1,.87-.32-.06-.79-.38-.8-.59,0-3.11,0-6.21,0-9.32a1.33,1.33,0,0,1,.42-.75c.28-.3.64-.57,1-.85Z"/><path class="cls-2" d="M192.74,29.81h-1.67V2.12h1.67Z"/><path class="cls-2" d="M173.08,28.57V3.32h1.83v1l-.06,23.35C174.85,28.79,174.78,28.84,173.08,28.57Z"/><path class="cls-2" d="M216.12,17.26V3.32h1.81a1.81,1.81,0,0,1,.08.34c0,5-.09,10-.1,15,0,3.05,0,6.1.06,9.14,0,.57-.1,1-1,.87-.32-.06-.78-.39-.79-.6-.06-1.95,0-3.9,0-5.86a.68.68,0,0,1,.16-.48c1.36-1.18.8-2.52.54-3.82,0-.24-.46-.44-.7-.65Z"/><path class="cls-2" d="M151.56,4.35h1.71V27.57h-1.71Z"/><path class="cls-2" d="M232.27,27.58h-1.73V4.36h1.73Z"/><path class="cls-2" d="M253.79,27.58h-1.64V4.36h1.64Z"/><path class="cls-2" d="M246.66,26.55c-1.65.23-1.74.18-1.74-.92,0-3,0-5.91,0-8.87,0-3.53-.09-7-.13-10.58,0-.26,0-.51,0-.84h1.88Z"/><path class="cls-2" d="M171,17.76c-1.63.78-1.68,1.85-.43,2.58a5.51,5.51,0,0,1,.89.88c-1.39,0-2-.32-2-1.13q0-9.9-.05-19.81a1.28,1.28,0,0,1,.08-.24h1.87c-.23,6.43.36,12.89-.38,19.19l.11-.17.1,0v1C169.79,19.79,169.66,19,171,17.76Z"/><path class="cls-2" d="M225.11,25.28c-1.65.25-1.73.22-1.73-.9,0-2.18,0-4.36.13-6.57l.24.43c.07-.23.18-.37.15-.5a18.55,18.55,0,0,1-.63-2.9c-.09-2.44,0-4.88,0-7.32V6.57h1.88Z"/><path class="cls-2" d="M183.85,0h1.84V.92c0,4.8,0,9.59,0,14.38,0,1-.3,1.59-1.86,1.59Z"/><path class="cls-2" d="M221.26,20.48c-1.31-1.23-1.22-2,.31-2.38-1.54.83.1,1.59-.12,2.4a3.27,3.27,0,0,0,0,.7c-1,0-1.7-.15-1.7-1q0-8.88-.07-17.74a1.84,1.84,0,0,1,.09-.38h1.73a8.22,8.22,0,0,1,.08.88q0,6.15,0,12.31a10,10,0,0,1-.12,1.89c-.05.25-.37.52-.66.69C219.54,18.64,219.62,19.76,221.26,20.48Z"/><path class="cls-2" d="M180.93,17.89a6.3,6.3,0,0,1-.68-1.85c-.07-3.12,0-6.25,0-9.44H182a1.29,1.29,0,0,1,.1.41q0,8.88-.07,17.77c0,.48-.24.66-.88.65s-.92-.12-.89-.64c0-.87,0-1.73,0-2.59,0-.17,0-.42.09-.49,1.9-1.17.86-2.55.52-3.88Z"/><path class="cls-2" d="M176.65,16.88V2.12h1.82c0,.28.06.54.06.79V15.3C178.53,16.62,178.52,16.62,176.65,16.88Z"/><path class="cls-2" d="M255.55,8.86h1.88v14c-1.48.38-1.73.26-1.74-.78q-.08-6.1-.14-12.23Z"/><path class="cls-2" d="M209,17.49V4.35h1.89v1c0,3.11,0,6.21,0,9.32C210.87,15.81,210.9,17,209,17.49Z"/><path class="cls-2" d="M201.81,20V5.32h1.72a1.7,1.7,0,0,1,.1.42q0,6.24-.08,12.48c0,.14,0,.32-.08.41C203,19.07,202.46,19.48,201.81,20Z"/><path class="cls-2" d="M185.22,17.85c-.72.19-.72.19-1.32,3a20.32,20.32,0,0,1,.07-3.22c0-.28.89-.5,1.37-.75l.28.2v1.35q0,6.34,0,12.67c0,.49,0,.91-.9.91s-.86-.48-.86-.93c0-2.9-.19-5.81.08-8.7.12-1.27.61-2.54.67-3.84C184.64,18.3,185,18.09,185.22,17.85Z"/><path class="cls-2" d="M187.46,4.34h1.75a2.94,2.94,0,0,1,.09.53c0,3.54,0,7.08,0,10.61,0,1.17-.05,1.19-1.84,1.25Z"/><path class="cls-2" d="M158.71,16.58V6.6h1.87v1c-.05,3.91-.09,7.81-.13,11.72,0,.45,0,.91-.83.9s-1-.39-1-.93-.13-1.35,1.13-1.5c.18,0,.39-.4.38-.62s-.29-.36-.52-.46A5.27,5.27,0,0,0,158.71,16.58Z"/><path class="cls-2" d="M144.34,9.75h1.85c0,2,0,4,0,5.9s-.05,3.91-.05,5.86c0,.44-.12.71-.82.71s-.95-.18-1-.7c0-3.82-.07-7.64-.11-11.46A1.57,1.57,0,0,1,144.34,9.75Z"/><path class="cls-2" d="M239.56,9.75c0,2,0,3.86,0,5.75s-.1,3.9-.13,5.85c0,.46,0,.86-.85.87s-.92-.3-.92-.8c0-3.68,0-7.36,0-11,0-.19,0-.38.06-.63Z"/><path class="cls-2" d="M169.52,21.25c1.38.06,1.77.56,1.73,1.56-.09,2.79,0,5.58,0,8.37,0,.48-.05.82-.9.82s-.86-.38-.86-.84c0-3.14,0-6.27,0-9.41A4.45,4.45,0,0,1,169.52,21.25Z"/><path class="cls-2" d="M210,18.32c0,.74,0,1.47,0,2.2,0,.22-.32.43-.5.64-.13-.21-.37-.42-.39-.64a9.38,9.38,0,0,1,0-2,1.55,1.55,0,0,1,1.48-1.44V27.49c-1.49.25-1.66.17-1.66-.87v-5c1.31-.09,1.43-.74,1.35-1.53a17.61,17.61,0,0,1,0-1.78Z"/><path class="cls-2" d="M219.78,29.81V21.28c1.71.26,1.71.26,1.71,1.48v7Z"/><path class="cls-2" d="M176.63,21.37c1.56,0,1.83.55,1.79,1.48-.08,2.06,0,4.12,0,6.18,0,.52-.09.89-1,.87s-.8-.45-.8-.89Z"/><path class="cls-2" d="M189.16,22.87c0,1.35,0,2.7,0,4,0,.5-.18.75-.9.75s-.88-.27-.88-.75c0-1.61-.06-3.22,0-4.82a24.61,24.61,0,0,1,.61-3.6c0-.18.42-.33.64-.49.16.19.46.38.47.57,0,1.43,0,2.86,0,4.3Z"/><path class="cls-2" d="M212.45,8.86h1.89c0,2.48,0,4.9-.06,7.32,0,.32-.81.63-1.41.86C212.25,14.29,212.58,11.62,212.45,8.86Z"/><path class="cls-2" d="M196.41,9.69c0,2.21.08,4.33-.07,6.44,0,.43-.94.82-1.45,1.22l-.39-.1c0-2.36,0-4.73,0-7.09,0-.16.36-.4.6-.45A7.69,7.69,0,0,1,196.41,9.69Z"/><path class="cls-2" d="M259.23,12.43H261v6.94c-1.56.39-1.77.28-1.77-.84Z"/><path class="cls-2" d="M203.25,20.76l-1.26.48-.3-.17,1.46-2,.31.08V26.6h-1.63c0-1.59,0-3.18,0-4.78,0-.15.38-.3.6-.43s.6-.35.9-.52Z"/><path class="cls-2" d="M212.68,17.42l1.65-.5c0,2,0,3.84-.06,5.69,0,.22-.85.41-1.55.73-.05-.93-.64-1.59.66-1.94.22-.06.34-.55.35-.84.05-.87,0-1.74,0-2.58-.78.93.23,2.29-.6,3.29l-.47-.07Z"/><path class="cls-2" d="M159.8,21.33c-.45-.1-1.37,0-1-.85h1.64c0,1.52.05,3-.07,4.52,0,.2-.9.35-1.66.63,0-1.42-.06-2.53.05-3.63C158.77,21.75,159.45,21.55,159.8,21.33Z"/><path class="cls-2" d="M196.32,22.25,194.73,22c.18-.37.38-.73.53-1.1a15,15,0,0,0,.56-1.54,11.41,11.41,0,0,0,.19-1.17l.31,0Z"/><path class="cls-2" d="M206.86,21.14c-.58.19-.91,0-.93-.43,0-1.07,0-2.13,0-3.19,0-.17.29-.34.44-.51.15.18.41.35.42.53,0,1.21,0,2.42,0,3.62Z"/><path class="cls-2" d="M194.72,20.77c-.15-2.09-.21-3.75,1.56-3.66l-1.22,3.72Z"/><path class="cls-2" d="M177.37,18.1l1-.08v2.12c-1.4-.16-1.66-.79-.92-2.07Z"/><path class="cls-2" d="M180.93,17.89l-.06-.06a12,12,0,0,1-.08,3.38h-.52c0-1.09,0-2.18,0-3.26A4,4,0,0,1,180.93,17.89Z"/><path class="cls-2" d="M216.12,17.26c.84,1.28.64,2.61.47,3.95h-.47v-4Z"/><path class="cls-2" d="M187.4,20.81c0-.88,0-1.76,0-2.63,0-1.12.12-1.19,2-1.15-.29.3-.45.63-.69.66-.87.14-1,.59-1.08,1.14,0,.34,0,.68,0,1v.94Z"/><path class="cls-2" d="M177.41,18.07l-.7.39c-.19-1.22,0-1.38,1.61-1.45.52.77-.75.68-.95,1.09Z"/><path class="cls-2" d="M178.38,21.26c-1.63-.15-1.84-.34-1.63-1.59C177,20.48,178.54,20.23,178.38,21.26Z"/><path class="cls-2" d="M158.59,17.57a3.14,3.14,0,0,1,.65-.61c.09-.05.44.18.68.28l-1,.6Z"/></g></g></svg>