<svg xmlns="http://www.w3.org/2000/svg" viewBox="0 0 19.17 15.26"><defs><style>.cls-1{fill:#384560;}</style></defs><g id="Capa_2" data-name="Capa 2"><g id="climatizador_y_volumen" data-name="climatizador y volumen"><path class="cls-1" d="M10.87.22a1.41,1.41,0,0,0-1.54,0L4,3.8a.22.22,0,0,1-.13,0H1.62A1.72,1.72,0,0,0,0,5.64v4a1.71,1.71,0,0,0,1.62,1.79H3.85a.33.33,0,0,1,.13,0L9.33,15a1.46,1.46,0,0,0,.79.24,1.41,1.41,0,0,0,.75-.22,1.71,1.71,0,0,0,.77-1.47V1.69A1.72,1.72,0,0,0,10.87.22Zm-.6,13.35a.16.16,0,0,1-.08.15.13.13,0,0,1-.15,0L4.68,10.16a1.47,1.47,0,0,0-.83-.25H1.62a.27.27,0,0,1-.25-.28v-4a.26.26,0,0,1,.25-.28H3.85a1.48,1.48,0,0,0,.83-.26L10,1.54a.13.13,0,0,1,.15,0,.16.16,0,0,1,.08.15Z"/><path class="cls-1" d="M13.22,3.34a.82.82,0,0,0,0,1.07,5.12,5.12,0,0,1,1.18,3.27A5.26,5.26,0,0,1,13.2,11a.82.82,0,0,0,0,1.07.68.68,0,0,0,.48.21.63.63,0,0,0,.49-.24,6.75,6.75,0,0,0,0-8.63A.64.64,0,0,0,13.22,3.34Z"/><path class="cls-1" d="M17,1.12A.64.64,0,0,0,16,1a.82.82,0,0,0-.06,1.07,9.19,9.19,0,0,1,0,11.14A.81.81,0,0,0,16,14.31a.63.63,0,0,0,.45.19.68.68,0,0,0,.52-.26A10.8,10.8,0,0,0,17,1.12Z"/></g></g></svg>