<svg xmlns="http://www.w3.org/2000/svg" viewBox="0 0 18.2 13"><defs><style>.cls-1{fill:#59667c;}</style></defs><g id="Capa_2" data-name="Capa 2"><g id="radio"><path class="cls-1" d="M7.28,7.85l8.62,5a1.52,1.52,0,0,0,1.53,0,1.54,1.54,0,0,0,.77-1.35V1.56A1.55,1.55,0,0,0,16.66,0a1.6,1.6,0,0,0-.76.2l-8.62,5a1.56,1.56,0,0,0,0,2.7Zm.64-1.57,8.63-4.95a.21.21,0,0,1,.22,0,.25.25,0,0,1,.13.23v9.88a.25.25,0,0,1-.13.23.29.29,0,0,1-.11,0l-.11,0L7.92,6.72a.26.26,0,0,1,0-.44Z"/><path class="cls-1" d="M2,13h.55a2,2,0,0,0,2-2V2a2,2,0,0,0-2-2H2A2,2,0,0,0,0,2v9A2,2,0,0,0,2,13ZM1.3,2A.7.7,0,0,1,2,1.3h.55a.7.7,0,0,1,.7.7v9a.7.7,0,0,1-.7.7H2a.7.7,0,0,1-.7-.7Z"/></g></g></svg>